# Max2Obj Version 4.0 Mar 10th, 2001
#
mtllib ./turret.mtl
g
# object turret to come ...
#
v  20.293495 80.819008 15.163222
v  17.071753 80.819008 7.385252
v  9.293782 80.819008 4.163512
v  1.515812 80.819008 7.385253
v  -1.705928 80.819008 15.163223
v  1.515814 80.819008 22.941193
v  9.293785 80.819008 26.162933
v  17.071754 80.819008 22.941191
v  9.293783 80.819008 15.163222
v  21.251293 73.74675 15.163222
v  17.74902 73.74675 6.707986
v  9.293782 73.74675 3.205712
v  0.838546 73.74675 6.707987
v  -2.663727 73.74675 15.163223
v  0.838548 73.74675 23.61846
v  9.293785 73.74675 27.120731
v  17.74902 73.74675 23.618458
v  20.293495 80.819008 15.163222
v  17.071753 80.819008 7.385252
v  9.293782 80.819008 4.163512
v  1.515812 80.819008 7.385253
v  -1.705928 80.819008 15.163223
v  1.515814 80.819008 22.941193
v  9.293785 80.819008 26.162933
v  17.071754 80.819008 22.941191
v  -33.228142 52.763168 23.307667
v  -5.134687 52.763168 30.718822
v  2.755465 52.763168 30.831516
v  12.507158 52.763168 28.177505
v  20.001253 52.763168 22.942585
v  25.54405 52.763168 15.551806
v  35.847496 52.763168 19.328278
v  35.712852 52.763168 -19.952801
v  25.716406 52.763168 -16.161049
v  20.00157 52.763168 -23.370377
v  13.283987 52.763168 -28.708389
v  2.757025 52.763168 -32.11599
v  -5.115299 52.763168 -32.152977
v  -33.228142 52.763168 -23.916908
v  -33.228142 69.859528 23.307667
v  -5.134687 73.763168 30.718822
v  2.755465 73.763168 30.831516
v  12.507158 73.763168 28.177505
v  20.001253 73.763168 22.942585
v  25.54405 73.763168 15.551806
v  35.847496 73.763168 19.328278
v  35.712852 73.763168 -19.952801
v  25.716406 73.763168 -16.161049
v  20.00157 73.763168 -23.370377
v  13.283987 73.763168 -28.708389
v  2.757025 73.763168 -32.11599
v  -5.115299 73.763168 -32.152977
v  -33.228142 69.859528 -23.916908
v  -33.103477 69.784462 18.726019
v  -36.324921 61.408714 18.726019
v  -33.103477 54.804756 18.726019
v  -33.103477 69.784462 23.308598
v  -36.324921 61.408714 22.480955
v  -33.103477 54.804756 23.308598
v  35.847496 52.763168 19.328278
v  39.637108 52.763168 10.891788
v  41.055779 52.763168 -0.476974
v  39.809273 52.763168 -10.632089
v  35.712852 52.763168 -19.952801
v  35.847496 73.763168 19.328278
v  39.637108 73.763168 10.891788
v  41.055779 73.763168 -0.476974
v  39.809273 73.763168 -10.632089
v  35.712852 73.763168 -19.952801
v  -33.103477 69.784462 -23.933239
v  -36.324921 61.408714 -23.102894
v  -33.103477 54.804756 -23.933243
v  -33.103477 69.784462 -19.350662
v  -36.324921 61.408714 -19.347958
v  -33.103477 54.804756 -19.350662
v  -33.228142 52.763168 23.307667
v  -33.228142 52.763168 -23.916908
v  -33.228142 69.859528 23.307667
v  -5.134687 73.763168 30.718822
v  2.755465 73.763168 30.831516
v  12.507158 73.763168 28.177505
v  20.001253 73.763168 22.942585
v  25.54405 73.763168 15.551806
v  35.847496 73.763168 19.328278
v  39.637108 73.763168 10.891788
v  41.055779 73.763168 -0.476974
v  39.809273 73.763168 -10.632089
v  35.712852 73.763168 -19.952801
v  25.716406 73.763168 -16.161049
v  20.00157 73.763168 -23.370377
v  13.283987 73.763168 -28.708389
v  2.757025 73.763168 -32.11599
v  -5.115299 73.763168 -32.152977
v  -33.228142 69.859528 -23.916908
# 94 vertices

vt  0.732569 0.391293 1.335157
vt  0.691328 0.489997 1.335157
vt  0.591763 0.530881 1.335157
vt  0.492199 0.489997 1.335157
vt  0.450958 0.391293 1.335157
vt  0.492199 0.29259 1.335157
vt  0.591763 0.251706 1.335157
vt  0.691328 0.29259 1.335157
vt  0.591763 0.391293 1.335157
vt  5.25 -0.138098 0.999001
vt  6.125 -0.138098 0.999001
vt  7 -0.138098 0.999001
vt  0.875 -0.138098 0.999001
vt  1.75 -0.138098 0.999001
vt  2.625 -0.138098 0.999001
vt  3.5 -0.138098 0.999001
vt  4.375 -0.138098 0.999001
vt  5.25 -0.008227 0.918981
vt  6.125 -0.008227 0.918981
vt  7 -0.008227 0.918981
vt  0.875 -0.008227 0.918981
vt  1.75 -0.008227 0.918981
vt  2.625 -0.008227 0.918981
vt  3.5 -0.008227 0.918981
vt  4.375 -0.008227 0.918981
vt  0 -0.138098 0.999001
vt  0 -0.008227 0.918981
vt  0 -0.138098 0.999001
vt  0.051215 -0.003581 1.640212
vt  0.407677 -0.003581 1.992772
vt  0.507791 -0.003581 1.998133
vt  0.631525 -0.003581 1.871878
vt  0.726613 -0.003581 1.622845
vt  0.796943 -0.003581 1.271255
vt  0.927678 -0.003581 1.450907
vt  0.925969 -0.003581 -0.417752
vt  0.79913 -0.003581 -0.237373
vt  0.726618 -0.003581 -0.580331
vt  0.641382 -0.003581 -0.834268
vt  0.507811 -0.003581 -0.996373
vt  0.407923 -0.003581 -0.998133
vt  0.051215 -0.003581 -0.606331
vt  0.051215 0.152216 1.640212
vt  0.407677 0.18779 1.992772
vt  0.507791 0.18779 1.998133
vt  0.631525 0.18779 1.871878
vt  0.726613 0.18779 1.622845
vt  0.796943 0.18779 1.271255
vt  0.927678 0.18779 1.450907
vt  0.925969 0.18779 -0.417752
vt  0.79913 0.18779 -0.237373
vt  0.726618 0.18779 -0.580331
vt  0.641382 0.18779 -0.834268
vt  0.507811 0.18779 -0.996373
vt  0.407923 0.18779 -0.998133
vt  0.051215 0.152216 -0.606331
vt  0.052797 0.151532 1.422256
vt  0.011922 0.075205 1.422256
vt  0.052797 0.015023 1.422256
vt  0.052797 0.151532 1.640256
vt  0.011922 0.075205 1.600884
vt  0.052797 0.015023 1.640256
vt  0.002408 0.267012 0.620681
vt  0.002408 0.400726 0.440403
vt  0.002408 0.580915 0.372915
vt  0.002408 0.741869 0.432213
vt  0.002408 0.889598 0.627085
vt  0.374749 0.267012 0.620681
vt  0.374749 0.400726 0.440403
vt  0.374749 0.580915 0.372915
vt  0.374749 0.741869 0.432213
vt  0.374749 0.889598 0.627085
vt  0.052797 0.151532 -0.607108
vt  0.011922 0.075205 -0.567607
vt  0.052797 0.015023 -0.607108
vt  0.052797 0.151532 -0.389108
vt  0.011922 0.075205 -0.388979
vt  0.052797 0.015023 -0.389108
vt  0.047448 0.28794 0.0005
vt  0.407067 0.193891 0.0005
vt  0.508067 0.192461 0.0005
vt  0.632897 0.226141 0.0005
vt  0.728828 0.292572 0.0005
vt  0.79978 0.386362 0.0005
vt  0.931673 0.338438 0.0005
vt  0.980183 0.445498 0.0005
vt  0.998343 0.589769 0.0005
vt  0.982387 0.718639 0.0005
vt  0.929949 0.83692 0.0005
vt  0.801987 0.788802 0.0005
vt  0.728832 0.880289 0.0005
vt  0.642841 0.948029 0.0005
vt  0.508088 0.991272 0.0005
vt  0.407315 0.991742 0.0005
vt  0.047448 0.887225 0.0005
vt  0.047448 0.28794 0.813799
vt  0.407067 0.193891 0.999501
vt  0.508067 0.192461 0.999501
vt  0.632897 0.226141 0.999501
vt  0.728828 0.292572 0.999501
vt  0.79978 0.386362 0.999501
vt  0.931673 0.338438 0.999501
vt  0.980183 0.445498 0.999501
vt  0.998343 0.589769 0.999501
vt  0.982387 0.718639 0.999501
vt  0.929949 0.83692 0.999501
vt  0.801987 0.788802 0.999501
vt  0.728832 0.880289 0.999501
vt  0.642841 0.948029 0.999501
vt  0.508088 0.991272 0.999501
vt  0.407315 0.991742 0.999501
vt  0.047448 0.887225 0.813799
# 112 texture vertices

vn  0 1 0
vn  0 1 0
vn  0 1 0
vn  0 1 0
vn  0 1 0
vn  0 1 0
vn  0 1 0
vn  0 1 0
vn  0 1 0
vn  0.990954 0.134205 0
vn  0.70071 0.134205 -0.70071
vn  0 0.134205 -0.990954
vn  -0.70071 0.134205 -0.70071
vn  -0.990954 0.134205 0
vn  -0.70071 0.134205 0.70071
vn  0 0.134205 0.990954
vn  0.70071 0.134205 0.70071
vn  0.990954 0.134205 0
vn  0.70071 0.134205 -0.70071
vn  0 0.134205 -0.990954
vn  -0.70071 0.134205 -0.70071
vn  -0.990954 0.134205 0
vn  -0.70071 0.134205 0.70071
vn  0 0.134205 0.990954
vn  0.70071 0.134205 0.70071
vn  -0.255077 0 0.966921
vn  -0.135685 0 0.990752
vn  0.12539 0 0.992108
vn  0.423888 0 0.905715
vn  0.695081 0 0.718931
vn  1.25666 0 0.942446
vn  -0.344137 0 0.938919
vn  -0.354654 0 -0.934998
vn  -0.557089 0 -1.468691
vn  0.707526 0 -0.706687
vn  0.472618 0 -0.881268
vn  0.15821 0 -0.987405
vn  -0.139687 0 -0.990196
vn  -0.281148 0 -0.959664
vn  -0.255077 0 0.966921
vn  -0.130297 0 0.991475
vn  0.12539 0 0.992108
vn  0.423888 0 0.905715
vn  0.695081 0 0.718931
vn  1.25666 0 0.942446
vn  -0.344137 0 0.938919
vn  -0.354654 0 -0.934998
vn  -0.557089 0 -1.468691
vn  0.707526 0 -0.706687
vn  0.472618 0 -0.881268
vn  0.15821 0 -0.987405
vn  -0.133326 0 -0.991072
vn  -0.281148 0 -0.959664
vn  -1.466096 0.563883 0
vn  -1.466096 0.563883 0
vn  -1.411782 -0.688674 0
vn  -1.380258 0.530869 0
vn  -1.551933 0.596898 0
vn  -1.310971 -0.639498 0
vn  0.912197 0 0.409752
vn  0.962922 0 0.269779
vn  1 0 0.001005
vn  0.964273 0 -0.26491
vn  0.915485 0 -0.402352
vn  0.912197 0 0.409752
vn  0.962922 0 0.269779
vn  1 0 0.001005
vn  0.964273 0 -0.26491
vn  0.915485 0 -0.402352
vn  -1.37998 0.530762 0
vn  -1.552212 0.597005 0
vn  -1.310644 -0.639339 0
vn  -1.466377 0.563991 0
vn  -1.465814 0.563775 0
vn  -1.412113 -0.688836 0
vn  -1 0 0
vn  -1 0 0
vn  -1.570796 0 0
vn  -0.062561 0.998041 -0.000007
vn  0 1 0
vn  0 1 0
vn  0 1 0
vn  0 1 0
vn  0 1 0
vn  0 1 0
vn  0 1 0
vn  0 1 0
vn  0 1 0
vn  0 1 0
vn  0 1 0
vn  0 1 0
vn  0 1 0
vn  -0.062215 0.998063 -0.000019
vn  -1.570796 0 0
# 94 vertex normals

g turret
usemtl Material__65
s 1
f -86/-104/-86 -94/-112/-94 -93/-111/-93
f -86/-104/-86 -93/-111/-93 -92/-110/-92
f -86/-104/-86 -92/-110/-92 -91/-109/-91
f -86/-104/-86 -91/-109/-91 -90/-108/-90
f -86/-104/-86 -90/-108/-90 -89/-107/-89
f -86/-104/-86 -89/-107/-89 -88/-106/-88
f -86/-104/-86 -88/-106/-88 -87/-105/-87
f -86/-104/-86 -87/-105/-87 -94/-112/-94
s 8
f -85/-103/-85 -76/-94/-76 -77/-95/-77
f -85/-103/-85 -84/-102/-84 -76/-94/-76
f -84/-102/-84 -75/-93/-75 -76/-94/-76
f -84/-102/-84 -83/-101/-83 -75/-93/-75
f -83/-87/-83 -74/-92/-74 -75/-86/-75
f -83/-85/-83 -82/-100/-82 -74/-92/-74
f -82/-100/-82 -73/-91/-73 -74/-92/-74
f -82/-100/-82 -81/-99/-81 -73/-91/-73
f -81/-99/-81 -72/-90/-72 -73/-91/-73
f -81/-99/-81 -80/-98/-80 -72/-90/-72
f -80/-98/-80 -71/-89/-71 -72/-90/-72
f -80/-98/-80 -79/-97/-79 -71/-89/-71
f -79/-97/-79 -70/-88/-70 -71/-89/-71
f -79/-97/-79 -78/-96/-78 -70/-88/-70
f -78/-96/-78 -77/-95/-77 -70/-88/-70
f -78/-96/-78 -85/-103/-85 -77/-95/-77
s 1
f -69/-84/-69 -68/-83/-68 -54/-69/-54
f -69/-84/-69 -54/-69/-54 -55/-70/-55
f -68/-83/-68 -67/-82/-67 -53/-68/-53
f -68/-83/-68 -53/-68/-53 -54/-69/-54
f -67/-82/-67 -66/-81/-66 -52/-67/-52
f -67/-82/-67 -52/-67/-52 -53/-68/-53
f -66/-81/-66 -65/-80/-65 -51/-66/-51
f -66/-81/-66 -51/-66/-51 -52/-67/-52
f -65/-80/-65 -64/-79/-64 -50/-65/-50
f -65/-80/-65 -50/-65/-50 -51/-66/-51
s 2
f -64/-79/-64 -63/-78/-63 -49/-64/-49
f -64/-79/-64 -49/-64/-49 -50/-65/-50
s 1
f -62/-77/-62 -61/-76/-61 -47/-62/-47
f -62/-77/-62 -47/-62/-47 -48/-63/-48
s 2
f -61/-76/-61 -60/-75/-60 -46/-61/-46
f -61/-76/-61 -46/-61/-46 -47/-62/-47
f -60/-75/-60 -59/-74/-59 -45/-60/-45
f -60/-75/-60 -45/-60/-45 -46/-61/-46
f -59/-74/-59 -58/-73/-58 -44/-59/-44
f -59/-74/-59 -44/-59/-44 -45/-60/-45
f -58/-73/-58 -57/-72/-57 -43/-58/-43
f -58/-73/-58 -43/-58/-43 -44/-59/-44
f -57/-72/-57 -56/-71/-56 -42/-57/-42
f -57/-72/-57 -42/-57/-42 -43/-58/-43
s 1
f -41/-56/-41 -40/-55/-40 -37/-52/-37
f -41/-56/-41 -37/-52/-37 -38/-53/-38
s 4
f -40/-55/-40 -39/-54/-39 -36/-51/-36
f -40/-55/-40 -36/-51/-36 -37/-52/-37
s 16
f -39/-54/-39 -40/-55/-40 -41/-56/-41
f -36/-51/-36 -38/-53/-38 -37/-52/-37
s 1
f -35/-50/-35 -34/-49/-34 -29/-44/-29
f -35/-50/-35 -29/-44/-29 -30/-45/-30
f -34/-49/-34 -33/-48/-33 -28/-43/-28
f -34/-49/-34 -28/-43/-28 -29/-44/-29
f -33/-48/-33 -32/-47/-32 -27/-42/-27
f -33/-48/-33 -27/-42/-27 -28/-43/-28
f -32/-47/-32 -31/-46/-31 -26/-41/-26
f -32/-47/-32 -26/-41/-26 -27/-42/-27
f -25/-40/-25 -24/-39/-24 -21/-36/-21
f -25/-40/-25 -21/-36/-21 -22/-37/-22
s 4
f -24/-39/-24 -23/-38/-23 -20/-35/-20
f -24/-39/-24 -20/-35/-20 -21/-36/-21
s 16
f -23/-38/-23 -24/-39/-24 -25/-40/-25
f -20/-35/-20 -22/-37/-22 -21/-36/-21
s 1
f -18/-18/-18 -19/-34/-19 -17/-17/-17
f -18/-18/-18 -17/-17/-17 -1/-1/-1
s 2
f -8/-8/-8 -7/-7/-7 -6/-6/-6
f -12/-12/-12 -11/-11/-11 -10/-10/-10
f -1/-1/-1 -17/-17/-17 -16/-16/-16
f -2/-2/-2 -1/-1/-1 -16/-16/-16
f -3/-3/-3 -2/-2/-2 -16/-16/-16
f -4/-4/-4 -3/-3/-3 -16/-16/-16
f -5/-5/-5 -4/-4/-4 -16/-16/-16
f -6/-6/-6 -5/-5/-5 -16/-16/-16
f -6/-6/-6 -16/-16/-16 -15/-15/-15
f -6/-6/-6 -15/-15/-15 -14/-14/-14
f -6/-6/-6 -14/-14/-14 -13/-13/-13
f -6/-6/-6 -13/-13/-13 -12/-12/-12
f -8/-8/-8 -6/-6/-6 -12/-12/-12
f -9/-9/-9 -8/-8/-8 -12/-12/-12
f -9/-9/-9 -12/-12/-12 -10/-10/-10
# 85 faces

g
