# Blender v2.64 (sub 0) OBJ File: 'shed1.blend'
# www.blender.org
mtllib shed1.mtl
o aCube_Cube.001
v -0.227344 0.451424 0.897451
v -0.045259 -4.619905 -0.512265
v 0.984175 -4.594787 -0.307472
v 0.744548 0.481864 1.027834
v 0.724187 0.492290 -0.939710
v 0.096525 -4.669858 0.204043
v -1.352491 -4.635590 0.290223
v -0.647730 0.542525 -0.729750
vt 0.999630 1.000000
vt 0.065042 0.996575
vt 0.000000 0.000000
vt 1.000000 0.005608
vt 0.000000 0.029370
vt 1.000000 0.000000
vt 0.966485 0.970594
vt 0.010665 1.000000
vn -0.152186 -0.263962 0.952451
vn -0.108134 -0.190247 -0.975763
usemtl Material
s off
f 4/1/1 1/2/1 2/3/1 3/4/1
f 6/5/2 7/6/2 8/7/2 5/8/2
o Cube
v 1.366597 -0.042357 -0.938657
v 1.366597 -0.042357 1.061343
v -1.226574 -0.042357 1.061343
v -1.226574 -0.042357 -0.938657
v 1.366597 1.957644 -0.890279
v 1.366596 1.957644 1.124593
v -1.226574 1.957644 0.975879
v -1.226574 1.957644 -1.018850
v 1.366597 2.812979 0.061344
v 0.366597 1.957644 -0.938657
v 0.366596 1.957644 1.061343
v -1.226574 3.003773 -0.057503
v 0.366597 2.761848 0.061343
vt 0.917109 0.509358
vt 0.468153 0.462891
vt 0.323276 0.075603
vt 0.838545 0.103760
vt 0.286598 0.565230
vt 0.514503 0.590456
vt 0.759530 0.970990
vt 0.459399 0.881707
vt 0.061855 0.538335
vt 0.301310 0.853195
vt 0.488859 0.892717
vt 0.272501 0.822590
vt 0.080482 0.538594
vt 0.399665 0.584147
vt 0.766898 0.974709
vt 0.501926 0.606004
vt 0.330510 0.090290
vt 0.828745 0.091553
vt 0.733434 0.822998
vt 0.932861 0.633850
vt 0.537109 0.608300
vt 0.650836 0.493652
vt 0.296225 0.039318
vt 0.820676 0.100899
vt 0.929593 0.514820
vt 0.501858 0.490201
vt 0.774167 0.981689
vt 0.329590 0.066962
vt 0.868124 0.109863
vt 0.914551 0.624180
vt 0.529960 0.628852
vt 0.281078 0.535751
vt 0.012862 0.184416
vt 0.305492 0.071580
vt 0.447014 0.529724
vt 0.093032 0.534941
vn 0.000000 -1.000000 0.000000
vn 0.097625 0.723918 -0.682944
vn -0.003806 0.761806 -0.647794
vn 0.012999 0.739551 0.672975
vn -0.039711 0.778604 0.626257
vn 1.000000 0.000000 -0.000000
vn 1.000000 -0.000000 0.000001
vn -0.000000 -0.000000 1.000000
vn -0.063092 -0.031546 0.997509
vn -0.053518 0.042632 0.997656
vn -1.000000 -0.000000 -0.000000
vn 0.000000 0.000000 -1.000000
vn 0.050232 -0.040013 -0.997936
vn 0.048307 0.024154 -0.998540
usemtl Material_shed1.jpg
s off
f 9/9/3 10/10/3 11/11/3 12/12/3
f 18/13/4 16/14/4 20/15/4 21/16/4
f 13/17/5 18/13/5 21/16/5 17/18/5
f 21/19/6 20/20/6 15/21/6 19/22/6
f 17/23/7 21/19/7 19/22/7 14/24/7
f 10/25/8 9/26/8 17/27/8
f 17/27/9 9/26/9 13/28/9
f 17/27/9 14/29/9 10/25/9
f 19/30/10 11/31/10 10/32/10
f 14/33/11 19/30/11 10/32/11
f 19/30/12 15/34/12 11/31/12
f 20/35/13 12/36/13 11/37/13
f 15/38/13 20/35/13 11/37/13
f 20/35/13 16/39/13 12/36/13
f 18/40/14 9/41/14 12/42/14
f 16/43/15 18/40/15 12/42/15
f 13/44/16 9/41/16 18/40/16
